<svg xmlns="http://www.w3.org/2000/svg" xmlns:xlink="http://www.w3.org/1999/xlink" width="293" zoomAndPan="magnify" viewBox="0 0 219.75 80.249996" height="107" preserveAspectRatio="xMidYMid meet" version="1.0"><defs><g/><clipPath id="2c33c7d526"><path d="M 5.09375 0 L 43 0 L 43 49.785156 L 5.09375 49.785156 Z M 5.09375 0 " clip-rule="nonzero"/></clipPath><clipPath id="5e7026fe1e"><path d="M 209 21 L 213.894531 21 L 213.894531 32 L 209 32 Z M 209 21 " clip-rule="nonzero"/></clipPath><clipPath id="5194f6a3fc"><rect x="0" width="209" y="0" height="23"/></clipPath></defs><g clip-path="url(#2c33c7d526)"><path fill="#e2010f" d="M 37.296875 44.765625 C 33.355469 47.875 28.082031 49.445312 23.019531 49.445312 C 16.679688 49.445312 10.398438 47.90625 5.09375 43.582031 L 10.960938 33.746094 C 14.21875 36.410156 18.101562 38.871094 22.574219 38.871094 C 25.65625 38.871094 28.648438 37.953125 28.648438 34.664062 C 28.648438 31.226562 23.789062 31.050781 20.972656 30.339844 C 14.902344 28.769531 7.347656 26.722656 7.347656 15.761719 C 7.347656 6.222656 14.632812 0 24.707031 0 C 29.773438 0 36.230469 2.34375 40.703125 4.710938 L 35.132812 13.984375 C 32.558594 12.324219 28.410156 11.347656 26.453125 11.347656 C 24.054688 11.347656 20.972656 12.03125 20.972656 14.636719 C 20.972656 17.390625 24.023438 17.894531 26.78125 18.636719 C 26.78125 18.636719 30.1875 19.375 31.609375 19.851562 C 37.859375 21.894531 42.511719 24.085938 42.511719 32.410156 C 42.511719 37.0625 41.296875 41.59375 37.296875 44.765625 " fill-opacity="1" fill-rule="nonzero"/></g><path fill="#e2010f" d="M 66.539062 0.949219 L 45.710938 0.949219 L 45.710938 48.023438 L 59.132812 48.023438 L 59.132812 32.5 L 65.945312 32.5 C 77.792969 32.5 81.644531 25.6875 81.644531 16.472656 C 81.644531 9.628906 78.507812 0.949219 66.539062 0.949219 Z M 60.136719 22.191406 L 59.101562 22.191406 L 59.101562 11.199219 L 60.136719 11.199219 C 64.90625 11.199219 68.964844 11.199219 68.964844 16.710938 C 68.964844 22.457031 64.582031 22.191406 60.136719 22.191406 Z M 60.136719 22.191406 " fill-opacity="1" fill-rule="nonzero"/><path fill="#e2010f" d="M 104.488281 1.128906 L 84.609375 1.128906 L 84.609375 48.203125 L 104.488281 48.203125 C 117.492188 48.203125 125.519531 37.804688 125.519531 24.589844 C 125.519531 11.378906 117.550781 1.128906 104.488281 1.128906 Z M 99.332031 37.242188 L 97.878906 37.242188 L 97.878906 12.117188 L 99.449219 12.117188 C 107.300781 12.117188 112.070312 17.242188 112.070312 24.441406 C 112.070312 32.976562 106.621094 37.242188 99.332031 37.242188 Z M 99.332031 37.242188 " fill-opacity="1" fill-rule="nonzero"/><path fill="#e2010f" d="M 146.464844 10.339844 C 146.464844 10.902344 146.347656 11.4375 146.140625 11.910156 C 145.933594 12.386719 145.605469 12.800781 145.191406 13.15625 C 144.777344 13.511719 144.273438 13.777344 143.679688 13.957031 C 143.089844 14.132812 142.40625 14.25 141.636719 14.25 C 141.105469 14.25 140.601562 14.222656 140.125 14.164062 C 139.652344 14.101562 139.207031 14.015625 138.792969 13.925781 L 139.03125 11.257812 C 139.445312 11.4375 139.890625 11.554688 140.363281 11.644531 C 140.835938 11.734375 141.3125 11.792969 141.757812 11.792969 C 142.257812 11.792969 142.675781 11.703125 142.96875 11.496094 C 143.265625 11.320312 143.414062 11.023438 143.414062 10.609375 C 143.414062 10.28125 143.296875 10.042969 143.089844 9.835938 C 142.882812 9.628906 142.554688 9.453125 142.171875 9.273438 C 141.785156 9.097656 141.339844 8.917969 140.898438 8.710938 C 140.453125 8.503906 140.066406 8.265625 139.710938 8 C 139.355469 7.734375 139.058594 7.378906 138.851562 6.964844 C 138.617188 6.519531 138.527344 6.015625 138.527344 5.394531 C 138.527344 4.832031 138.644531 4.328125 138.851562 3.882812 C 139.058594 3.410156 139.386719 3.023438 139.800781 2.699219 C 140.214844 2.371094 140.71875 2.105469 141.3125 1.957031 C 141.902344 1.777344 142.554688 1.691406 143.296875 1.691406 C 143.621094 1.691406 144.007812 1.71875 144.390625 1.75 C 144.777344 1.777344 145.164062 1.839844 145.488281 1.925781 L 145.25 4.386719 C 144.570312 4.148438 143.890625 4.03125 143.148438 4.03125 C 142.585938 4.03125 142.171875 4.121094 141.902344 4.328125 C 141.636719 4.535156 141.488281 4.800781 141.488281 5.15625 C 141.488281 5.453125 141.609375 5.691406 141.816406 5.898438 C 142.023438 6.105469 142.347656 6.28125 142.734375 6.460938 C 143.117188 6.636719 143.535156 6.816406 144.007812 7.023438 C 144.480469 7.230469 144.867188 7.46875 145.222656 7.734375 C 145.578125 8 145.875 8.355469 146.082031 8.800781 C 146.347656 9.1875 146.464844 9.71875 146.464844 10.339844 Z M 146.464844 10.339844 " fill-opacity="1" fill-rule="nonzero"/><path fill="#e2010f" d="M 156.359375 9.332031 C 156.359375 10.074219 156.242188 10.753906 156.003906 11.378906 C 155.769531 12 155.441406 12.535156 155.027344 12.949219 C 154.613281 13.363281 154.109375 13.6875 153.546875 13.894531 C 152.984375 14.101562 152.363281 14.222656 151.710938 14.222656 C 151.058594 14.222656 150.464844 14.132812 149.960938 13.957031 C 149.429688 13.777344 148.984375 13.511719 148.628906 13.15625 C 148.242188 12.800781 147.976562 12.324219 147.769531 11.792969 C 147.5625 11.230469 147.472656 10.578125 147.472656 9.808594 C 147.472656 9.066406 147.59375 8.386719 147.800781 7.761719 C 148.035156 7.140625 148.332031 6.636719 148.746094 6.195312 C 149.164062 5.777344 149.636719 5.453125 150.199219 5.214844 C 150.761719 4.980469 151.382812 4.859375 152.09375 4.859375 C 153.457031 4.859375 154.523438 5.246094 155.265625 5.984375 C 156.003906 6.785156 156.359375 7.882812 156.359375 9.332031 Z M 153.546875 9.570312 C 153.546875 8.800781 153.398438 8.238281 153.132812 7.824219 C 152.835938 7.4375 152.449219 7.230469 151.945312 7.230469 C 151.738281 7.230469 151.53125 7.261719 151.355469 7.347656 C 151.148438 7.40625 150.96875 7.554688 150.820312 7.734375 C 150.644531 7.910156 150.523438 8.179688 150.4375 8.472656 C 150.347656 8.769531 150.289062 9.125 150.289062 9.542969 C 150.289062 10.28125 150.4375 10.875 150.703125 11.257812 C 150.96875 11.644531 151.382812 11.851562 151.917969 11.851562 C 152.449219 11.851562 152.835938 11.644531 153.132812 11.257812 C 153.398438 10.902344 153.546875 10.3125 153.546875 9.570312 Z M 153.546875 9.570312 " fill-opacity="1" fill-rule="nonzero"/><path fill="#e2010f" d="M 157.664062 14.042969 L 157.664062 12.089844 L 160.746094 7.527344 C 160.628906 7.527344 160.417969 7.554688 160.152344 7.554688 C 159.886719 7.554688 159.5625 7.554688 159.144531 7.554688 L 157.753906 7.554688 L 157.753906 5.097656 L 164.0625 5.097656 L 164.0625 7.050781 L 161.042969 11.527344 C 161.515625 11.527344 161.871094 11.496094 162.136719 11.496094 C 162.40625 11.496094 162.613281 11.496094 162.761719 11.496094 L 164.09375 11.496094 L 164.09375 14.015625 Z M 157.664062 14.042969 " fill-opacity="1" fill-rule="nonzero"/><path fill="#e2010f" d="M 169.011719 2.429688 C 169.011719 2.667969 168.953125 2.875 168.863281 3.082031 C 168.773438 3.289062 168.65625 3.4375 168.507812 3.585938 C 168.359375 3.734375 168.183594 3.851562 167.972656 3.941406 C 167.765625 4.03125 167.558594 4.058594 167.324219 4.058594 C 167.085938 4.058594 166.878906 4.03125 166.671875 3.941406 C 166.464844 3.851562 166.285156 3.734375 166.136719 3.585938 C 165.988281 3.4375 165.871094 3.261719 165.78125 3.082031 C 165.691406 2.875 165.632812 2.667969 165.632812 2.429688 C 165.632812 2.222656 165.664062 2.015625 165.78125 1.808594 C 165.871094 1.601562 165.988281 1.421875 166.136719 1.277344 C 166.285156 1.128906 166.464844 1.007812 166.671875 0.921875 C 166.878906 0.832031 167.085938 0.800781 167.324219 0.800781 C 167.558594 0.800781 167.765625 0.832031 167.972656 0.921875 C 168.183594 1.007812 168.359375 1.128906 168.507812 1.277344 C 168.65625 1.421875 168.773438 1.601562 168.863281 1.777344 C 168.953125 1.957031 169.011719 2.195312 169.011719 2.429688 Z M 165.988281 14.042969 L 165.988281 5.097656 L 168.683594 5.097656 L 168.683594 14.042969 Z M 165.988281 14.042969 " fill-opacity="1" fill-rule="nonzero"/><path fill="#e2010f" d="M 175.589844 14.042969 C 175.589844 13.835938 175.589844 13.601562 175.589844 13.390625 C 175.589844 13.15625 175.617188 12.949219 175.648438 12.710938 L 175.617188 12.710938 C 175.410156 13.183594 175.054688 13.539062 174.550781 13.835938 C 174.078125 14.132812 173.515625 14.25 172.890625 14.25 C 172.476562 14.25 172.09375 14.191406 171.765625 14.042969 C 171.441406 13.894531 171.171875 13.71875 170.964844 13.480469 C 170.757812 13.246094 170.582031 12.976562 170.460938 12.652344 C 170.34375 12.324219 170.285156 12 170.285156 11.613281 C 170.285156 11.050781 170.402344 10.578125 170.671875 10.164062 C 170.90625 9.75 171.261719 9.453125 171.707031 9.1875 C 172.152344 8.949219 172.683594 8.769531 173.277344 8.652344 C 173.898438 8.535156 174.550781 8.472656 175.292969 8.472656 L 175.292969 8.207031 C 175.292969 7.761719 175.171875 7.4375 174.9375 7.261719 C 174.699219 7.082031 174.34375 6.992188 173.898438 6.992188 C 173.515625 6.992188 173.070312 7.050781 172.625 7.140625 C 172.179688 7.230469 171.707031 7.378906 171.203125 7.585938 L 170.789062 5.511719 C 171.261719 5.335938 171.796875 5.1875 172.417969 5.066406 C 173.039062 4.949219 173.632812 4.890625 174.226562 4.890625 C 174.964844 4.890625 175.589844 4.949219 176.0625 5.097656 C 176.535156 5.214844 176.921875 5.421875 177.21875 5.691406 C 177.511719 5.957031 177.722656 6.28125 177.839844 6.667969 C 177.957031 7.050781 178.015625 7.496094 178.015625 8.03125 L 178.015625 11.910156 C 178.015625 12.238281 178.015625 12.59375 178.046875 12.949219 C 178.046875 13.332031 178.078125 13.6875 178.105469 14.015625 L 175.589844 14.015625 Z M 175.320312 10.191406 C 174.847656 10.191406 174.433594 10.222656 174.136719 10.28125 C 173.808594 10.339844 173.574219 10.429688 173.394531 10.519531 C 173.21875 10.609375 173.097656 10.726562 173.039062 10.875 C 172.980469 11.023438 172.953125 11.140625 172.953125 11.289062 C 172.953125 11.496094 173.039062 11.703125 173.1875 11.882812 C 173.335938 12.058594 173.574219 12.148438 173.839844 12.148438 C 174.078125 12.148438 174.285156 12.089844 174.460938 12 C 174.640625 11.910156 174.816406 11.792969 174.9375 11.613281 C 175.054688 11.464844 175.171875 11.289062 175.261719 11.082031 C 175.351562 10.875 175.378906 10.667969 175.378906 10.460938 L 175.378906 10.191406 Z M 175.320312 10.191406 " fill-opacity="1" fill-rule="nonzero"/><path fill="#e2010f" d="M 180.179688 14.042969 L 180.179688 0.921875 L 182.875 0.921875 L 182.875 14.042969 C 182.875 14.042969 180.179688 14.042969 180.179688 14.042969 Z M 180.179688 14.042969 " fill-opacity="1" fill-rule="nonzero"/><path fill="#e2010f" d="M 192.59375 8.769531 C 192.59375 8.949219 192.59375 9.1875 192.5625 9.480469 C 192.535156 9.75 192.535156 10.015625 192.503906 10.28125 L 187.230469 10.28125 C 187.230469 10.84375 187.378906 11.320312 187.703125 11.644531 C 188.03125 11.96875 188.5625 12.148438 189.335938 12.148438 C 189.75 12.148438 190.191406 12.117188 190.636719 12.03125 C 191.082031 11.941406 191.554688 11.820312 192.03125 11.675781 L 192.296875 13.6875 C 191.792969 13.867188 191.230469 14.015625 190.667969 14.101562 C 190.105469 14.191406 189.542969 14.25 189.007812 14.25 C 187.527344 14.25 186.371094 13.867188 185.632812 13.125 C 184.859375 12.386719 184.503906 11.230469 184.503906 9.6875 C 184.503906 9.007812 184.59375 8.386719 184.800781 7.824219 C 184.980469 7.261719 185.277344 6.757812 185.632812 6.339844 C 185.988281 5.925781 186.460938 5.570312 186.992188 5.335938 C 187.527344 5.097656 188.148438 4.949219 188.859375 4.949219 C 189.511719 4.949219 190.105469 5.066406 190.609375 5.273438 C 191.113281 5.480469 191.496094 5.777344 191.824219 6.132812 C 192.117188 6.519531 192.355469 6.933594 192.472656 7.378906 C 192.535156 7.824219 192.59375 8.296875 192.59375 8.769531 Z M 189.601562 7.289062 C 189.363281 7.023438 189.066406 6.90625 188.652344 6.90625 C 188.269531 6.90625 187.941406 7.050781 187.675781 7.347656 C 187.410156 7.644531 187.261719 8.03125 187.199219 8.503906 L 189.898438 8.503906 C 189.925781 7.941406 189.835938 7.554688 189.601562 7.289062 Z M 189.601562 7.289062 " fill-opacity="1" fill-rule="nonzero"/><path fill="#e2010f" d="M 147.59375 22.785156 C 147.59375 23.40625 147.472656 24 147.265625 24.53125 C 147.058594 25.066406 146.734375 25.566406 146.316406 25.984375 C 145.902344 26.398438 145.371094 26.722656 144.746094 26.960938 C 144.125 27.199219 143.414062 27.316406 142.613281 27.316406 C 142.46875 27.316406 142.320312 27.316406 142.171875 27.316406 C 142.023438 27.316406 141.933594 27.316406 141.875 27.316406 L 141.875 31.050781 L 139.089844 31.050781 L 139.089844 18.902344 C 139.207031 18.902344 139.445312 18.871094 139.769531 18.871094 C 140.097656 18.871094 140.542969 18.84375 141.074219 18.84375 C 141.609375 18.84375 142.171875 18.8125 142.734375 18.8125 C 144.304688 18.8125 145.519531 19.167969 146.347656 19.851562 C 147.175781 20.53125 147.59375 21.507812 147.59375 22.785156 Z M 144.746094 23.050781 C 144.746094 22.457031 144.570312 21.984375 144.214844 21.628906 C 143.859375 21.273438 143.324219 21.09375 142.613281 21.09375 C 142.46875 21.09375 142.320312 21.09375 142.171875 21.09375 C 142.023438 21.09375 141.902344 21.125 141.84375 21.125 L 141.84375 24.945312 C 141.84375 24.945312 141.875 24.945312 141.933594 24.945312 C 141.992188 24.945312 142.050781 24.976562 142.140625 24.976562 C 142.230469 24.976562 142.320312 25.003906 142.40625 25.003906 C 142.496094 25.003906 142.613281 25.003906 142.734375 25.003906 C 143.355469 25.003906 143.859375 24.828125 144.214844 24.472656 C 144.570312 24.117188 144.746094 23.644531 144.746094 23.050781 Z M 144.746094 23.050781 " fill-opacity="1" fill-rule="nonzero"/><path fill="#e2010f" d="M 156.714844 26.339844 C 156.714844 27.078125 156.597656 27.761719 156.359375 28.382812 C 156.125 29.003906 155.796875 29.539062 155.382812 29.953125 C 154.96875 30.367188 154.464844 30.695312 153.902344 30.902344 C 153.339844 31.109375 152.71875 31.226562 152.066406 31.226562 C 151.414062 31.226562 150.820312 31.136719 150.316406 30.960938 C 149.785156 30.78125 149.339844 30.515625 148.984375 30.160156 C 148.597656 29.804688 148.332031 29.332031 148.125 28.796875 C 147.917969 28.234375 147.828125 27.582031 147.828125 26.8125 C 147.828125 26.070312 147.949219 25.390625 148.15625 24.769531 C 148.390625 24.144531 148.6875 23.644531 149.101562 23.199219 C 149.519531 22.785156 149.992188 22.457031 150.554688 22.21875 C 151.117188 21.984375 151.738281 21.863281 152.449219 21.863281 C 153.8125 21.863281 154.878906 22.25 155.621094 22.992188 C 156.332031 23.761719 156.714844 24.886719 156.714844 26.339844 Z M 153.902344 26.546875 C 153.902344 25.777344 153.753906 25.210938 153.488281 24.796875 C 153.191406 24.414062 152.804688 24.207031 152.300781 24.207031 C 152.09375 24.207031 151.886719 24.234375 151.710938 24.324219 C 151.53125 24.414062 151.324219 24.53125 151.175781 24.710938 C 151 24.886719 150.878906 25.152344 150.792969 25.449219 C 150.703125 25.746094 150.644531 26.101562 150.644531 26.515625 C 150.644531 27.257812 150.792969 27.847656 151.058594 28.234375 C 151.324219 28.621094 151.738281 28.828125 152.273438 28.828125 C 152.804688 28.828125 153.191406 28.621094 153.488281 28.234375 C 153.753906 27.878906 153.902344 27.316406 153.902344 26.546875 Z M 153.902344 26.546875 " fill-opacity="1" fill-rule="nonzero"/><path fill="#e2010f" d="M 157.929688 17.894531 L 160.628906 17.894531 L 160.628906 31.019531 L 157.929688 31.019531 Z M 157.929688 17.894531 " fill-opacity="1" fill-rule="nonzero"/><path fill="#e2010f" d="M 165.78125 19.40625 C 165.78125 19.644531 165.722656 19.851562 165.632812 20.058594 C 165.546875 20.265625 165.425781 20.414062 165.277344 20.5625 C 165.128906 20.710938 164.953125 20.828125 164.746094 20.917969 C 164.539062 21.007812 164.332031 21.035156 164.09375 21.035156 C 163.855469 21.035156 163.648438 21.007812 163.441406 20.917969 C 163.234375 20.828125 163.054688 20.710938 162.910156 20.5625 C 162.761719 20.414062 162.640625 20.234375 162.554688 20.058594 C 162.464844 19.851562 162.40625 19.644531 162.40625 19.40625 C 162.40625 19.199219 162.433594 18.992188 162.554688 18.785156 C 162.640625 18.578125 162.761719 18.398438 162.910156 18.25 C 163.054688 18.101562 163.234375 17.984375 163.441406 17.894531 C 163.648438 17.804688 163.855469 17.777344 164.09375 17.777344 C 164.332031 17.777344 164.539062 17.804688 164.746094 17.894531 C 164.953125 17.984375 165.128906 18.101562 165.277344 18.25 C 165.425781 18.398438 165.546875 18.578125 165.632812 18.753906 C 165.722656 18.992188 165.78125 19.199219 165.78125 19.40625 Z M 162.730469 31.019531 L 162.730469 22.074219 L 165.425781 22.074219 L 165.425781 31.019531 Z M 162.730469 31.019531 " fill-opacity="1" fill-rule="nonzero"/><path fill="#e2010f" d="M 172.714844 30.960938 C 172.417969 31.050781 172.09375 31.109375 171.738281 31.167969 C 171.382812 31.226562 171.054688 31.226562 170.757812 31.226562 C 170.226562 31.226562 169.8125 31.167969 169.457031 31.078125 C 169.101562 30.988281 168.832031 30.8125 168.625 30.605469 C 168.417969 30.398438 168.269531 30.070312 168.183594 29.714844 C 168.09375 29.332031 168.035156 28.855469 168.035156 28.292969 L 168.035156 24.175781 L 166.699219 24.175781 L 166.699219 22.074219 L 168.035156 22.074219 L 168.035156 19.4375 L 170.730469 18.695312 L 170.730469 22.074219 L 172.65625 22.074219 L 172.65625 24.175781 L 170.730469 24.175781 L 170.730469 27.789062 C 170.730469 28.234375 170.789062 28.53125 170.9375 28.679688 C 171.054688 28.828125 171.292969 28.914062 171.617188 28.914062 C 171.765625 28.914062 171.945312 28.914062 172.09375 28.886719 C 172.242188 28.855469 172.417969 28.828125 172.597656 28.796875 Z M 172.714844 30.960938 " fill-opacity="1" fill-rule="nonzero"/><path fill="#e2010f" d="M 177.304688 19.40625 C 177.304688 19.644531 177.246094 19.851562 177.15625 20.058594 C 177.070312 20.265625 176.949219 20.414062 176.800781 20.5625 C 176.65625 20.710938 176.476562 20.828125 176.269531 20.917969 C 176.0625 21.007812 175.855469 21.035156 175.617188 21.035156 C 175.378906 21.035156 175.171875 21.007812 174.964844 20.917969 C 174.757812 20.828125 174.582031 20.710938 174.433594 20.5625 C 174.285156 20.414062 174.164062 20.234375 174.078125 20.058594 C 173.988281 19.851562 173.929688 19.644531 173.929688 19.40625 C 173.929688 19.199219 173.957031 18.992188 174.078125 18.785156 C 174.164062 18.578125 174.285156 18.398438 174.433594 18.25 C 174.582031 18.101562 174.757812 17.984375 174.964844 17.894531 C 175.171875 17.804688 175.378906 17.777344 175.617188 17.777344 C 175.855469 17.777344 176.0625 17.804688 176.269531 17.894531 C 176.476562 17.984375 176.65625 18.101562 176.800781 18.25 C 176.949219 18.398438 177.070312 18.578125 177.15625 18.753906 C 177.277344 18.992188 177.304688 19.199219 177.304688 19.40625 Z M 174.285156 31.019531 L 174.285156 22.074219 L 176.980469 22.074219 L 176.980469 31.019531 Z M 174.285156 31.019531 " fill-opacity="1" fill-rule="nonzero"/><path fill="#e2010f" d="M 184.207031 31.019531 L 181.808594 26.722656 L 181.808594 31.019531 L 179.113281 31.019531 L 179.113281 17.894531 L 181.808594 17.894531 L 181.808594 25.6875 L 184.0625 22.101562 L 187.261719 22.101562 L 184.417969 26.070312 L 187.585938 31.050781 L 184.207031 31.050781 Z M 184.207031 31.019531 " fill-opacity="1" fill-rule="nonzero"/><path fill="#e2010f" d="M 197.984375 20.085938 C 197.628906 19.96875 197.304688 19.941406 196.976562 19.941406 C 196.5625 19.941406 196.265625 20.058594 196.089844 20.296875 C 195.910156 20.53125 195.820312 20.886719 195.820312 21.363281 L 195.820312 22.074219 L 197.628906 22.074219 L 197.628906 24.175781 L 195.820312 24.175781 L 195.820312 31.019531 L 193.125 31.019531 L 193.125 24.175781 L 191.734375 24.175781 L 191.734375 22.074219 L 193.097656 22.074219 L 193.097656 21.570312 C 193.097656 20.324219 193.394531 19.347656 193.984375 18.695312 C 194.578125 18.042969 195.527344 17.71875 196.828125 17.71875 C 197.007812 17.71875 197.214844 17.71875 197.453125 17.746094 C 197.6875 17.777344 197.894531 17.777344 198.132812 17.804688 Z M 197.984375 20.085938 " fill-opacity="1" fill-rule="nonzero"/><path fill="#e2010f" d="M 204.472656 31.019531 C 204.472656 30.839844 204.472656 30.632812 204.503906 30.367188 C 204.503906 30.101562 204.53125 29.835938 204.589844 29.628906 L 204.5625 29.597656 C 204.292969 30.070312 203.910156 30.457031 203.4375 30.753906 C 202.960938 31.050781 202.371094 31.195312 201.628906 31.195312 C 201.125 31.195312 200.710938 31.109375 200.382812 30.960938 C 200.058594 30.8125 199.792969 30.605469 199.585938 30.339844 C 199.378906 30.070312 199.230469 29.773438 199.140625 29.417969 C 199.050781 29.0625 198.992188 28.707031 198.992188 28.324219 L 198.992188 22.074219 L 201.6875 22.074219 L 201.6875 27.761719 C 201.6875 28.117188 201.746094 28.414062 201.867188 28.621094 C 201.984375 28.828125 202.191406 28.914062 202.515625 28.914062 C 202.753906 28.914062 202.992188 28.855469 203.199219 28.707031 C 203.40625 28.558594 203.613281 28.382812 203.761719 28.144531 C 203.910156 27.910156 204.058594 27.640625 204.148438 27.347656 C 204.234375 27.050781 204.292969 26.722656 204.292969 26.398438 L 204.292969 22.074219 L 206.992188 22.074219 L 206.992188 31.019531 Z M 202.546875 19.40625 C 202.546875 19.792969 202.398438 20.148438 202.132812 20.414062 C 201.867188 20.679688 201.539062 20.828125 201.125 20.828125 C 200.738281 20.828125 200.414062 20.679688 200.148438 20.414062 C 199.878906 20.148438 199.734375 19.792969 199.734375 19.40625 C 199.734375 19.019531 199.878906 18.695312 200.148438 18.398438 C 200.414062 18.101562 200.769531 17.984375 201.125 17.984375 C 201.511719 17.984375 201.835938 18.132812 202.132812 18.398438 C 202.398438 18.695312 202.546875 19.050781 202.546875 19.40625 Z M 206.25 19.40625 C 206.25 19.792969 206.101562 20.148438 205.835938 20.414062 C 205.570312 20.679688 205.242188 20.828125 204.828125 20.828125 C 204.441406 20.828125 204.117188 20.679688 203.851562 20.414062 C 203.582031 20.148438 203.4375 19.792969 203.4375 19.40625 C 203.4375 19.019531 203.582031 18.695312 203.851562 18.398438 C 204.117188 18.101562 204.472656 17.984375 204.828125 17.984375 C 205.214844 17.984375 205.539062 18.132812 205.835938 18.398438 C 206.132812 18.695312 206.25 19.050781 206.25 19.40625 Z M 206.25 19.40625 " fill-opacity="1" fill-rule="nonzero"/><g clip-path="url(#5e7026fe1e)"><path fill="#e2010f" d="M 214.042969 24.589844 C 213.300781 24.414062 212.738281 24.5625 212.351562 25.003906 C 211.96875 25.449219 211.789062 26.21875 211.789062 27.347656 L 211.789062 31.019531 L 209.09375 31.019531 L 209.09375 22.074219 L 211.613281 22.074219 C 211.613281 22.25 211.613281 22.515625 211.582031 22.8125 C 211.554688 23.109375 211.523438 23.40625 211.492188 23.671875 L 211.523438 23.671875 C 211.761719 23.140625 212.085938 22.695312 212.53125 22.339844 C 212.945312 21.984375 213.507812 21.835938 214.191406 21.863281 Z M 214.042969 24.589844 " fill-opacity="1" fill-rule="nonzero"/></g><path fill="#e2010f" d="M 149.191406 41.683594 C 149.191406 42.722656 149.042969 43.640625 148.71875 44.441406 C 148.390625 45.238281 147.949219 45.890625 147.382812 46.453125 C 146.820312 46.988281 146.109375 47.402344 145.3125 47.667969 C 144.511719 47.933594 143.621094 48.082031 142.644531 48.082031 C 141.992188 48.082031 141.398438 48.082031 140.808594 48.054688 C 140.214844 48.023438 139.652344 47.996094 139.089844 47.996094 L 139.089844 35.90625 C 139.5625 35.878906 140.15625 35.847656 140.867188 35.847656 C 141.578125 35.820312 142.347656 35.820312 143.179688 35.820312 C 144.066406 35.820312 144.894531 35.9375 145.636719 36.144531 C 146.378906 36.351562 147 36.707031 147.53125 37.152344 C 148.066406 37.625 148.453125 38.21875 148.746094 38.988281 C 149.042969 39.699219 149.191406 40.617188 149.191406 41.683594 Z M 146.230469 41.921875 C 146.230469 41.359375 146.171875 40.824219 146.082031 40.382812 C 145.992188 39.90625 145.816406 39.523438 145.546875 39.195312 C 145.3125 38.871094 144.957031 38.632812 144.539062 38.457031 C 144.125 38.277344 143.621094 38.1875 143 38.1875 C 142.761719 38.1875 142.554688 38.1875 142.347656 38.1875 C 142.171875 38.1875 141.992188 38.1875 141.84375 38.21875 L 141.84375 45.625 C 141.964844 45.652344 142.113281 45.652344 142.289062 45.683594 C 142.46875 45.683594 142.675781 45.714844 142.882812 45.714844 C 143.355469 45.714844 143.800781 45.625 144.214844 45.476562 C 144.628906 45.328125 144.984375 45.089844 145.28125 44.796875 C 145.578125 44.5 145.816406 44.085938 145.960938 43.609375 C 146.140625 43.136719 146.230469 42.574219 146.230469 41.921875 Z M 146.230469 41.921875 " fill-opacity="1" fill-rule="nonzero"/><path fill="#e2010f" d="M 153.84375 36.410156 C 153.84375 36.648438 153.785156 36.855469 153.695312 37.0625 C 153.605469 37.269531 153.488281 37.417969 153.339844 37.566406 C 153.191406 37.714844 153.011719 37.832031 152.804688 37.921875 C 152.597656 38.011719 152.390625 38.039062 152.15625 38.039062 C 151.917969 38.039062 151.710938 38.011719 151.503906 37.921875 C 151.296875 37.832031 151.117188 37.714844 150.96875 37.566406 C 150.820312 37.417969 150.703125 37.242188 150.613281 37.0625 C 150.523438 36.855469 150.464844 36.648438 150.464844 36.410156 C 150.464844 36.203125 150.496094 35.996094 150.613281 35.789062 C 150.703125 35.582031 150.820312 35.402344 150.96875 35.253906 C 151.117188 35.109375 151.296875 34.988281 151.503906 34.898438 C 151.710938 34.8125 151.917969 34.78125 152.15625 34.78125 C 152.390625 34.78125 152.597656 34.8125 152.804688 34.898438 C 153.011719 34.988281 153.191406 35.109375 153.339844 35.253906 C 153.488281 35.402344 153.605469 35.582031 153.695312 35.757812 C 153.785156 35.96875 153.84375 36.175781 153.84375 36.410156 Z M 150.820312 47.996094 L 150.820312 39.046875 L 153.515625 39.046875 L 153.515625 47.996094 Z M 150.820312 47.996094 " fill-opacity="1" fill-rule="nonzero"/><path fill="#e2010f" d="M 160.417969 48.113281 C 160.003906 48.171875 159.589844 48.203125 159.175781 48.203125 C 157.8125 48.203125 156.804688 47.847656 156.125 47.105469 C 155.441406 46.367188 155.117188 45.269531 155.117188 43.816406 C 155.117188 43.136719 155.207031 42.515625 155.382812 41.921875 C 155.5625 41.328125 155.859375 40.796875 156.214844 40.351562 C 156.597656 39.90625 157.070312 39.550781 157.636719 39.285156 C 158.226562 39.019531 158.910156 38.898438 159.707031 38.898438 C 160.003906 38.898438 160.332031 38.929688 160.628906 38.988281 C 160.921875 39.046875 161.21875 39.105469 161.484375 39.226562 L 161.070312 41.59375 C 160.597656 41.386719 160.152344 41.300781 159.679688 41.300781 C 159.085938 41.300781 158.640625 41.507812 158.347656 41.949219 C 158.050781 42.367188 157.902344 42.957031 157.902344 43.699219 C 157.902344 44.378906 158.050781 44.914062 158.347656 45.328125 C 158.640625 45.714844 159.085938 45.921875 159.679688 45.921875 C 159.945312 45.921875 160.183594 45.890625 160.449219 45.863281 C 160.714844 45.800781 160.953125 45.742188 161.160156 45.625 L 161.484375 47.933594 C 161.21875 47.964844 160.835938 48.054688 160.417969 48.113281 Z M 160.417969 48.113281 " fill-opacity="1" fill-rule="nonzero"/><path fill="#e2010f" d="M 168.359375 47.996094 L 168.359375 42.304688 C 168.359375 41.949219 168.300781 41.65625 168.183594 41.449219 C 168.0625 41.238281 167.855469 41.152344 167.53125 41.152344 C 167.292969 41.152344 167.054688 41.210938 166.847656 41.359375 C 166.640625 41.507812 166.433594 41.683594 166.285156 41.921875 C 166.136719 42.160156 165.988281 42.425781 165.902344 42.722656 C 165.8125 43.019531 165.753906 43.34375 165.753906 43.667969 L 165.753906 47.996094 L 163.054688 47.996094 L 163.054688 34.871094 L 165.753906 34.871094 L 165.753906 38.457031 C 165.753906 38.722656 165.753906 39.019531 165.722656 39.375 C 165.691406 39.730469 165.664062 40.027344 165.605469 40.292969 L 165.632812 40.292969 C 165.902344 39.878906 166.257812 39.523438 166.730469 39.253906 C 167.203125 38.988281 167.765625 38.871094 168.417969 38.871094 C 168.921875 38.871094 169.335938 38.957031 169.664062 39.105469 C 169.988281 39.253906 170.253906 39.460938 170.460938 39.730469 C 170.671875 39.996094 170.816406 40.292969 170.90625 40.648438 C 170.996094 41.003906 171.054688 41.359375 171.054688 41.742188 L 171.054688 47.996094 Z M 168.359375 47.996094 " fill-opacity="1" fill-rule="nonzero"/><path fill="#e2010f" d="M 176.300781 46.542969 C 176.300781 46.78125 176.238281 47.015625 176.152344 47.195312 C 176.0625 47.402344 175.945312 47.578125 175.796875 47.726562 C 175.648438 47.875 175.46875 47.996094 175.261719 48.082031 C 175.054688 48.171875 174.847656 48.230469 174.609375 48.230469 C 174.375 48.230469 174.164062 48.171875 173.957031 48.082031 C 173.75 47.996094 173.574219 47.875 173.425781 47.726562 C 173.277344 47.578125 173.160156 47.402344 173.070312 47.195312 C 172.980469 46.988281 172.921875 46.78125 172.921875 46.542969 C 172.921875 46.304688 172.980469 46.097656 173.070312 45.890625 C 173.160156 45.683594 173.277344 45.507812 173.425781 45.328125 C 173.574219 45.179688 173.75 45.0625 173.957031 44.972656 C 174.164062 44.882812 174.375 44.824219 174.609375 44.824219 C 174.847656 44.824219 175.054688 44.882812 175.261719 44.972656 C 175.46875 45.0625 175.648438 45.179688 175.796875 45.328125 C 175.945312 45.476562 176.0625 45.652344 176.152344 45.890625 C 176.269531 46.097656 176.300781 46.304688 176.300781 46.542969 Z M 176.300781 46.542969 " fill-opacity="1" fill-rule="nonzero"/><g transform="matrix(1, 0, 0, 1, 4, 53)"><g clip-path="url(#5194f6a3fc)"><g fill="#e2010f" fill-opacity="1"><g transform="translate(1.094452, 16.823034)"><g><path d="M 3.640625 -9.125 L 3.640625 -6.640625 L 7.1875 -6.640625 L 7.1875 -4.5 L 3.640625 -4.5 L 3.640625 0 L 1.015625 0 L 1.015625 -11.359375 L 7.4375 -11.359375 L 7.4375 -9.125 Z M 3.640625 -9.125 "/></g></g></g><g fill="#e2010f" fill-opacity="1"><g transform="translate(9.004529, 16.823034)"><g><path d="M 6.171875 -7.859375 C 6.171875 -8.304688 6.03125 -8.65625 5.75 -8.90625 C 5.476562 -9.164062 5.039062 -9.296875 4.4375 -9.296875 C 4.300781 -9.296875 4.164062 -9.289062 4.03125 -9.28125 C 3.90625 -9.269531 3.773438 -9.257812 3.640625 -9.25 L 3.640625 -6.34375 C 3.753906 -6.332031 3.875 -6.320312 4 -6.3125 C 4.125 -6.3125 4.25 -6.3125 4.375 -6.3125 C 4.925781 -6.3125 5.363281 -6.445312 5.6875 -6.71875 C 6.007812 -7 6.171875 -7.378906 6.171875 -7.859375 Z M 6.546875 0 L 4.0625 -4.375 L 3.640625 -4.375 L 3.640625 0 L 1.015625 0 L 1.015625 -11.359375 C 1.492188 -11.390625 2.03125 -11.410156 2.625 -11.421875 C 3.226562 -11.429688 3.890625 -11.4375 4.609375 -11.4375 C 5.304688 -11.4375 5.914062 -11.367188 6.4375 -11.234375 C 6.96875 -11.109375 7.410156 -10.914062 7.765625 -10.65625 C 8.128906 -10.394531 8.414062 -10.050781 8.625 -9.625 C 8.832031 -9.195312 8.9375 -8.671875 8.9375 -8.046875 C 8.9375 -7.253906 8.734375 -6.582031 8.328125 -6.03125 C 7.921875 -5.488281 7.363281 -5.097656 6.65625 -4.859375 C 6.78125 -4.679688 6.910156 -4.488281 7.046875 -4.28125 C 7.179688 -4.082031 7.328125 -3.863281 7.484375 -3.625 L 9.734375 0 Z M 6.546875 0 "/></g></g></g><g fill="#e2010f" fill-opacity="1"><g transform="translate(18.7659, 16.823034)"><g><path d="M 5.65625 -7.34375 C 5.5625 -7.601562 5.476562 -7.875 5.40625 -8.15625 C 5.34375 -8.445312 5.28125 -8.757812 5.21875 -9.09375 L 5.1875 -9.09375 C 5.132812 -8.8125 5.070312 -8.523438 5 -8.234375 C 4.925781 -7.941406 4.847656 -7.644531 4.765625 -7.34375 L 3.8125 -4.3125 L 6.59375 -4.3125 Z M 7.84375 0 L 7.15625 -2.234375 L 3.25 -2.234375 L 2.5625 0 L -0.046875 0 L 3.5625 -11.359375 L 7.03125 -11.359375 L 10.703125 0 Z M 7.84375 0 "/></g></g></g><g fill="#e2010f" fill-opacity="1"><g transform="translate(29.419263, 16.823034)"><g><path d="M 6.71875 0 L 3.640625 -5.328125 L 3.640625 0 L 1.015625 0 L 1.015625 -11.359375 L 3.640625 -11.359375 L 3.640625 -6.34375 L 6.75 -11.359375 L 9.890625 -11.359375 L 6.15625 -5.90625 L 10.109375 0 Z M 6.71875 0 "/></g></g></g><g fill="#e2010f" fill-opacity="1"><g transform="translate(39.601387, 16.823034)"><g><path d="M 5.5625 -9.125 L 5.5625 0 L 2.96875 0 L 2.96875 -9.125 L 0.234375 -9.125 L 0.234375 -11.359375 L 8.296875 -11.359375 L 8.296875 -9.125 Z M 5.5625 -9.125 "/></g></g></g><g fill="#e2010f" fill-opacity="1"><g transform="translate(48.134176, 16.823034)"><g><path d="M 1.015625 0 L 1.015625 -11.359375 L 3.640625 -11.359375 L 3.640625 0 Z M 1.015625 0 "/></g></g></g><g fill="#e2010f" fill-opacity="1"><g transform="translate(52.779243, 16.823034)"><g><path d="M 8.71875 -5.65625 C 8.71875 -6.789062 8.488281 -7.660156 8.03125 -8.265625 C 7.582031 -8.878906 6.914062 -9.1875 6.03125 -9.1875 C 5.625 -9.1875 5.253906 -9.109375 4.921875 -8.953125 C 4.585938 -8.804688 4.300781 -8.585938 4.0625 -8.296875 C 3.832031 -8.003906 3.648438 -7.640625 3.515625 -7.203125 C 3.390625 -6.765625 3.328125 -6.265625 3.328125 -5.703125 C 3.328125 -4.566406 3.550781 -3.691406 4 -3.078125 C 4.457031 -2.472656 5.132812 -2.171875 6.03125 -2.171875 C 6.425781 -2.171875 6.789062 -2.242188 7.125 -2.390625 C 7.457031 -2.546875 7.738281 -2.769531 7.96875 -3.0625 C 8.207031 -3.351562 8.390625 -3.71875 8.515625 -4.15625 C 8.648438 -4.59375 8.71875 -5.09375 8.71875 -5.65625 Z M 11.515625 -5.921875 C 11.515625 -4.953125 11.363281 -4.082031 11.0625 -3.3125 C 10.769531 -2.550781 10.359375 -1.90625 9.828125 -1.375 C 9.304688 -0.851562 8.703125 -0.457031 8.015625 -0.1875 C 7.328125 0.0820312 6.601562 0.21875 5.84375 0.21875 C 4.96875 0.21875 4.195312 0.0976562 3.53125 -0.140625 C 2.875 -0.390625 2.316406 -0.753906 1.859375 -1.234375 C 1.410156 -1.722656 1.070312 -2.316406 0.84375 -3.015625 C 0.625 -3.722656 0.515625 -4.53125 0.515625 -5.4375 C 0.515625 -6.394531 0.660156 -7.257812 0.953125 -8.03125 C 1.253906 -8.800781 1.671875 -9.445312 2.203125 -9.96875 C 2.734375 -10.5 3.335938 -10.898438 4.015625 -11.171875 C 4.703125 -11.441406 5.429688 -11.578125 6.203125 -11.578125 C 7.066406 -11.578125 7.828125 -11.453125 8.484375 -11.203125 C 9.148438 -10.960938 9.707031 -10.597656 10.15625 -10.109375 C 10.613281 -9.628906 10.953125 -9.035156 11.171875 -8.328125 C 11.398438 -7.628906 11.515625 -6.828125 11.515625 -5.921875 Z M 11.515625 -5.921875 "/></g></g></g><g fill="#e2010f" fill-opacity="1"><g transform="translate(64.812661, 16.823034)"><g><path d="M 7.21875 0 L 4.59375 -5.015625 C 4.394531 -5.398438 4.1875 -5.820312 3.96875 -6.28125 C 3.757812 -6.75 3.578125 -7.25 3.421875 -7.78125 C 3.441406 -7.351562 3.457031 -6.867188 3.46875 -6.328125 C 3.488281 -5.785156 3.5 -5.25 3.5 -4.71875 L 3.515625 0 L 1.015625 0 L 1.015625 -11.359375 L 4.453125 -11.359375 L 6.859375 -6.75 C 7.140625 -6.21875 7.390625 -5.726562 7.609375 -5.28125 C 7.835938 -4.832031 8.054688 -4.300781 8.265625 -3.6875 C 8.242188 -3.9375 8.226562 -4.207031 8.21875 -4.5 C 8.21875 -4.800781 8.207031 -5.15625 8.1875 -5.5625 C 8.175781 -5.96875 8.164062 -6.320312 8.15625 -6.625 C 8.15625 -6.9375 8.148438 -7.226562 8.140625 -7.5 L 8.140625 -11.359375 L 10.65625 -11.359375 L 10.65625 0 Z M 7.21875 0 "/></g></g></g><g fill="#e2010f" fill-opacity="1"><g transform="translate(76.391667, 16.823034)"><g/></g></g><g fill="#e2010f" fill-opacity="1"><g transform="translate(80.060597, 16.823034)"><g><path d="M 6.71875 0 L 3.640625 -5.328125 L 3.640625 0 L 1.015625 0 L 1.015625 -11.359375 L 3.640625 -11.359375 L 3.640625 -6.34375 L 6.75 -11.359375 L 9.890625 -11.359375 L 6.15625 -5.90625 L 10.109375 0 Z M 6.71875 0 "/></g></g></g><g fill="#e2010f" fill-opacity="1"><g transform="translate(90.242721, 16.823034)"><g><path d="M 5.65625 -7.34375 C 5.5625 -7.601562 5.476562 -7.875 5.40625 -8.15625 C 5.34375 -8.445312 5.28125 -8.757812 5.21875 -9.09375 L 5.1875 -9.09375 C 5.132812 -8.8125 5.070312 -8.523438 5 -8.234375 C 4.925781 -7.941406 4.847656 -7.644531 4.765625 -7.34375 L 3.8125 -4.3125 L 6.59375 -4.3125 Z M 7.84375 0 L 7.15625 -2.234375 L 3.25 -2.234375 L 2.5625 0 L -0.046875 0 L 3.5625 -11.359375 L 7.03125 -11.359375 L 10.703125 0 Z M 7.84375 0 "/></g></g></g><g fill="#e2010f" fill-opacity="1"><g transform="translate(100.896084, 16.823034)"><g><path d="M 1.015625 0 L 1.015625 -11.359375 L 3.640625 -11.359375 L 3.640625 0 Z M 1.015625 0 "/></g></g></g><g fill="#e2010f" fill-opacity="1"><g transform="translate(105.54115, 16.823034)"><g><path d="M 8 -3.453125 C 8 -2.910156 7.898438 -2.414062 7.703125 -1.96875 C 7.503906 -1.53125 7.207031 -1.148438 6.8125 -0.828125 C 6.414062 -0.503906 5.9375 -0.25 5.375 -0.0625 C 4.820312 0.113281 4.1875 0.203125 3.46875 0.203125 C 2.96875 0.203125 2.488281 0.175781 2.03125 0.125 C 1.582031 0.0703125 1.164062 0 0.78125 -0.09375 L 1.015625 -2.59375 C 1.398438 -2.4375 1.816406 -2.3125 2.265625 -2.21875 C 2.710938 -2.132812 3.15625 -2.09375 3.59375 -2.09375 C 4.082031 -2.09375 4.46875 -2.179688 4.75 -2.359375 C 5.039062 -2.535156 5.1875 -2.8125 5.1875 -3.1875 C 5.1875 -3.476562 5.082031 -3.71875 4.875 -3.90625 C 4.675781 -4.09375 4.390625 -4.265625 4.015625 -4.421875 C 3.640625 -4.585938 3.238281 -4.765625 2.8125 -4.953125 C 2.394531 -5.148438 2.019531 -5.367188 1.6875 -5.609375 C 1.351562 -5.859375 1.082031 -6.1875 0.875 -6.59375 C 0.664062 -7 0.5625 -7.492188 0.5625 -8.078125 C 0.5625 -8.585938 0.660156 -9.054688 0.859375 -9.484375 C 1.054688 -9.921875 1.347656 -10.296875 1.734375 -10.609375 C 2.128906 -10.921875 2.601562 -11.15625 3.15625 -11.3125 C 3.71875 -11.476562 4.347656 -11.5625 5.046875 -11.5625 C 5.359375 -11.5625 5.703125 -11.539062 6.078125 -11.5 C 6.453125 -11.457031 6.800781 -11.40625 7.125 -11.34375 L 6.875 -9.046875 C 6.238281 -9.273438 5.570312 -9.390625 4.875 -9.390625 C 4.351562 -9.390625 3.960938 -9.296875 3.703125 -9.109375 C 3.441406 -8.921875 3.3125 -8.660156 3.3125 -8.328125 C 3.3125 -8.054688 3.414062 -7.828125 3.625 -7.640625 C 3.832031 -7.460938 4.117188 -7.289062 4.484375 -7.125 C 4.847656 -6.957031 5.25 -6.773438 5.6875 -6.578125 C 6.125 -6.390625 6.507812 -6.164062 6.84375 -5.90625 C 7.1875 -5.65625 7.460938 -5.328125 7.671875 -4.921875 C 7.890625 -4.523438 8 -4.035156 8 -3.453125 Z M 8 -3.453125 "/></g></g></g><g fill="#e2010f" fill-opacity="1"><g transform="translate(113.989785, 16.823034)"><g><path d="M 1.015625 0 L 1.015625 -11.359375 L 7.6875 -11.359375 L 7.6875 -9.15625 L 3.640625 -9.15625 L 3.640625 -6.90625 L 7.34375 -6.90625 L 7.34375 -4.765625 L 3.640625 -4.765625 L 3.640625 -2.25 L 7.6875 -2.25 L 7.6875 0 Z M 1.015625 0 "/></g></g></g><g fill="#e2010f" fill-opacity="1"><g transform="translate(122.5394, 16.823034)"><g><path d="M 6.171875 -7.859375 C 6.171875 -8.304688 6.03125 -8.65625 5.75 -8.90625 C 5.476562 -9.164062 5.039062 -9.296875 4.4375 -9.296875 C 4.300781 -9.296875 4.164062 -9.289062 4.03125 -9.28125 C 3.90625 -9.269531 3.773438 -9.257812 3.640625 -9.25 L 3.640625 -6.34375 C 3.753906 -6.332031 3.875 -6.320312 4 -6.3125 C 4.125 -6.3125 4.25 -6.3125 4.375 -6.3125 C 4.925781 -6.3125 5.363281 -6.445312 5.6875 -6.71875 C 6.007812 -7 6.171875 -7.378906 6.171875 -7.859375 Z M 6.546875 0 L 4.0625 -4.375 L 3.640625 -4.375 L 3.640625 0 L 1.015625 0 L 1.015625 -11.359375 C 1.492188 -11.390625 2.03125 -11.410156 2.625 -11.421875 C 3.226562 -11.429688 3.890625 -11.4375 4.609375 -11.4375 C 5.304688 -11.4375 5.914062 -11.367188 6.4375 -11.234375 C 6.96875 -11.109375 7.410156 -10.914062 7.765625 -10.65625 C 8.128906 -10.394531 8.414062 -10.050781 8.625 -9.625 C 8.832031 -9.195312 8.9375 -8.671875 8.9375 -8.046875 C 8.9375 -7.253906 8.734375 -6.582031 8.328125 -6.03125 C 7.921875 -5.488281 7.363281 -5.097656 6.65625 -4.859375 C 6.78125 -4.679688 6.910156 -4.488281 7.046875 -4.28125 C 7.179688 -4.082031 7.328125 -3.863281 7.484375 -3.625 L 9.734375 0 Z M 6.546875 0 "/></g></g></g><g fill="#e2010f" fill-opacity="1"><g transform="translate(132.300772, 16.823034)"><g><path d="M 8 -3.453125 C 8 -2.910156 7.898438 -2.414062 7.703125 -1.96875 C 7.503906 -1.53125 7.207031 -1.148438 6.8125 -0.828125 C 6.414062 -0.503906 5.9375 -0.25 5.375 -0.0625 C 4.820312 0.113281 4.1875 0.203125 3.46875 0.203125 C 2.96875 0.203125 2.488281 0.175781 2.03125 0.125 C 1.582031 0.0703125 1.164062 0 0.78125 -0.09375 L 1.015625 -2.59375 C 1.398438 -2.4375 1.816406 -2.3125 2.265625 -2.21875 C 2.710938 -2.132812 3.15625 -2.09375 3.59375 -2.09375 C 4.082031 -2.09375 4.46875 -2.179688 4.75 -2.359375 C 5.039062 -2.535156 5.1875 -2.8125 5.1875 -3.1875 C 5.1875 -3.476562 5.082031 -3.71875 4.875 -3.90625 C 4.675781 -4.09375 4.390625 -4.265625 4.015625 -4.421875 C 3.640625 -4.585938 3.238281 -4.765625 2.8125 -4.953125 C 2.394531 -5.148438 2.019531 -5.367188 1.6875 -5.609375 C 1.351562 -5.859375 1.082031 -6.1875 0.875 -6.59375 C 0.664062 -7 0.5625 -7.492188 0.5625 -8.078125 C 0.5625 -8.585938 0.660156 -9.054688 0.859375 -9.484375 C 1.054688 -9.921875 1.347656 -10.296875 1.734375 -10.609375 C 2.128906 -10.921875 2.601562 -11.15625 3.15625 -11.3125 C 3.71875 -11.476562 4.347656 -11.5625 5.046875 -11.5625 C 5.359375 -11.5625 5.703125 -11.539062 6.078125 -11.5 C 6.453125 -11.457031 6.800781 -11.40625 7.125 -11.34375 L 6.875 -9.046875 C 6.238281 -9.273438 5.570312 -9.390625 4.875 -9.390625 C 4.351562 -9.390625 3.960938 -9.296875 3.703125 -9.109375 C 3.441406 -8.921875 3.3125 -8.660156 3.3125 -8.328125 C 3.3125 -8.054688 3.414062 -7.828125 3.625 -7.640625 C 3.832031 -7.460938 4.117188 -7.289062 4.484375 -7.125 C 4.847656 -6.957031 5.25 -6.773438 5.6875 -6.578125 C 6.125 -6.390625 6.507812 -6.164062 6.84375 -5.90625 C 7.1875 -5.65625 7.460938 -5.328125 7.671875 -4.921875 C 7.890625 -4.523438 8 -4.035156 8 -3.453125 Z M 8 -3.453125 "/></g></g></g><g fill="#e2010f" fill-opacity="1"><g transform="translate(140.749407, 16.823034)"><g><path d="M 1.015625 0 L 1.015625 -11.359375 L 3.640625 -11.359375 L 3.640625 -2.28125 L 7.0625 -2.28125 L 7.0625 0 Z M 1.015625 0 "/></g></g></g><g fill="#e2010f" fill-opacity="1"><g transform="translate(147.986294, 16.823034)"><g><path d="M 5.65625 -7.34375 C 5.5625 -7.601562 5.476562 -7.875 5.40625 -8.15625 C 5.34375 -8.445312 5.28125 -8.757812 5.21875 -9.09375 L 5.1875 -9.09375 C 5.132812 -8.8125 5.070312 -8.523438 5 -8.234375 C 4.925781 -7.941406 4.847656 -7.644531 4.765625 -7.34375 L 3.8125 -4.3125 L 6.59375 -4.3125 Z M 7.84375 0 L 7.15625 -2.234375 L 3.25 -2.234375 L 2.5625 0 L -0.046875 0 L 3.5625 -11.359375 L 7.03125 -11.359375 L 10.703125 0 Z M 7.84375 0 "/></g></g></g><g fill="#e2010f" fill-opacity="1"><g transform="translate(158.639648, 16.823034)"><g><path d="M 10.3125 -4.453125 C 10.3125 -2.847656 9.882812 -1.664062 9.03125 -0.90625 C 8.175781 -0.15625 7 0.21875 5.5 0.21875 C 4.59375 0.21875 3.847656 0.105469 3.265625 -0.109375 C 2.691406 -0.335938 2.234375 -0.644531 1.890625 -1.03125 C 1.554688 -1.414062 1.328125 -1.863281 1.203125 -2.375 C 1.078125 -2.882812 1.015625 -3.425781 1.015625 -4 L 1.015625 -11.359375 L 3.640625 -11.359375 L 3.640625 -4.15625 C 3.640625 -3.820312 3.664062 -3.519531 3.71875 -3.25 C 3.78125 -2.988281 3.890625 -2.757812 4.046875 -2.5625 C 4.203125 -2.375 4.410156 -2.226562 4.671875 -2.125 C 4.929688 -2.03125 5.265625 -1.984375 5.671875 -1.984375 C 6.410156 -1.984375 6.9375 -2.15625 7.25 -2.5 C 7.5625 -2.851562 7.71875 -3.457031 7.71875 -4.3125 L 7.71875 -11.359375 L 10.3125 -11.359375 Z M 10.3125 -4.453125 "/></g></g></g><g fill="#e2010f" fill-opacity="1"><g transform="translate(169.966201, 16.823034)"><g><path d="M 5.5625 -9.125 L 5.5625 0 L 2.96875 0 L 2.96875 -9.125 L 0.234375 -9.125 L 0.234375 -11.359375 L 8.296875 -11.359375 L 8.296875 -9.125 Z M 5.5625 -9.125 "/></g></g></g><g fill="#e2010f" fill-opacity="1"><g transform="translate(178.49899, 16.823034)"><g><path d="M 1.015625 0 L 1.015625 -11.359375 L 7.6875 -11.359375 L 7.6875 -9.15625 L 3.640625 -9.15625 L 3.640625 -6.90625 L 7.34375 -6.90625 L 7.34375 -4.765625 L 3.640625 -4.765625 L 3.640625 -2.25 L 7.6875 -2.25 L 7.6875 0 Z M 1.015625 0 "/></g></g></g><g fill="#e2010f" fill-opacity="1"><g transform="translate(187.048621, 16.823034)"><g><path d="M 6.171875 -7.859375 C 6.171875 -8.304688 6.03125 -8.65625 5.75 -8.90625 C 5.476562 -9.164062 5.039062 -9.296875 4.4375 -9.296875 C 4.300781 -9.296875 4.164062 -9.289062 4.03125 -9.28125 C 3.90625 -9.269531 3.773438 -9.257812 3.640625 -9.25 L 3.640625 -6.34375 C 3.753906 -6.332031 3.875 -6.320312 4 -6.3125 C 4.125 -6.3125 4.25 -6.3125 4.375 -6.3125 C 4.925781 -6.3125 5.363281 -6.445312 5.6875 -6.71875 C 6.007812 -7 6.171875 -7.378906 6.171875 -7.859375 Z M 6.546875 0 L 4.0625 -4.375 L 3.640625 -4.375 L 3.640625 0 L 1.015625 0 L 1.015625 -11.359375 C 1.492188 -11.390625 2.03125 -11.410156 2.625 -11.421875 C 3.226562 -11.429688 3.890625 -11.4375 4.609375 -11.4375 C 5.304688 -11.4375 5.914062 -11.367188 6.4375 -11.234375 C 6.96875 -11.109375 7.410156 -10.914062 7.765625 -10.65625 C 8.128906 -10.394531 8.414062 -10.050781 8.625 -9.625 C 8.832031 -9.195312 8.9375 -8.671875 8.9375 -8.046875 C 8.9375 -7.253906 8.734375 -6.582031 8.328125 -6.03125 C 7.921875 -5.488281 7.363281 -5.097656 6.65625 -4.859375 C 6.78125 -4.679688 6.910156 -4.488281 7.046875 -4.28125 C 7.179688 -4.082031 7.328125 -3.863281 7.484375 -3.625 L 9.734375 0 Z M 6.546875 0 "/></g></g></g><g fill="#e2010f" fill-opacity="1"><g transform="translate(196.809976, 16.823034)"><g><path d="M 7.21875 0 L 4.59375 -5.015625 C 4.394531 -5.398438 4.1875 -5.820312 3.96875 -6.28125 C 3.757812 -6.75 3.578125 -7.25 3.421875 -7.78125 C 3.441406 -7.351562 3.457031 -6.867188 3.46875 -6.328125 C 3.488281 -5.785156 3.5 -5.25 3.5 -4.71875 L 3.515625 0 L 1.015625 0 L 1.015625 -11.359375 L 4.453125 -11.359375 L 6.859375 -6.75 C 7.140625 -6.21875 7.390625 -5.726562 7.609375 -5.28125 C 7.835938 -4.832031 8.054688 -4.300781 8.265625 -3.6875 C 8.242188 -3.9375 8.226562 -4.207031 8.21875 -4.5 C 8.21875 -4.800781 8.207031 -5.15625 8.1875 -5.5625 C 8.175781 -5.96875 8.164062 -6.320312 8.15625 -6.625 C 8.15625 -6.9375 8.148438 -7.226562 8.140625 -7.5 L 8.140625 -11.359375 L 10.65625 -11.359375 L 10.65625 0 Z M 7.21875 0 "/></g></g></g></g></g></svg>